<svg width="24" height="24" viewBox="0 0 24 24" fill="none" xmlns="http://www.w3.org/2000/svg">
<path fill-rule="evenodd" clip-rule="evenodd" d="M6.53902 6.53899C6.34376 6.73426 6.34376 7.05084 6.53902 7.2461L8.96884 9.67591H7.62222C7.34607 9.67591 7.12222 9.89977 7.12222 10.1759C7.12222 10.4521 7.34607 10.6759 7.62222 10.6759H10.1759C10.4521 10.6759 10.6759 10.4521 10.6759 10.1759V7.62218C10.6759 7.34604 10.4521 7.12218 10.1759 7.12218C9.8998 7.12218 9.67594 7.34604 9.67594 7.62218V8.96881L7.24613 6.53899C7.05087 6.34373 6.73429 6.34373 6.53902 6.53899ZM17.4603 7.2461C17.6556 7.05084 17.6556 6.73426 17.4603 6.53899C17.2651 6.34373 16.9485 6.34373 16.7532 6.53899L14.3234 8.96881V7.62218C14.3234 7.34604 14.0995 7.12218 13.8234 7.12218C13.5473 7.12218 13.3234 7.34604 13.3234 7.62218V10.1759C13.3234 10.4521 13.5473 10.6759 13.8234 10.6759H16.3771C16.6533 10.6759 16.8771 10.4521 16.8771 10.1759C16.8771 9.89977 16.6533 9.67591 16.3771 9.67591H15.0305L17.4603 7.2461ZM17.4603 16.754C17.6556 16.9492 17.6556 17.2658 17.4603 17.4611C17.2651 17.6563 16.9485 17.6563 16.7532 17.4611L14.3234 15.0313V16.3779C14.3234 16.654 14.0995 16.8779 13.8234 16.8779C13.5473 16.8779 13.3234 16.654 13.3234 16.3779V13.8241C13.3234 13.548 13.5473 13.3241 13.8234 13.3241H16.3771C16.6533 13.3241 16.8771 13.548 16.8771 13.8241C16.8771 14.1003 16.6533 14.3241 16.3771 14.3241H15.0305L17.4603 16.754ZM6.53902 16.754C6.34376 16.9492 6.34376 17.2658 6.53902 17.4611C6.73429 17.6563 7.05087 17.6563 7.24613 17.4611L9.67594 15.0313V16.3779C9.67594 16.654 9.8998 16.8779 10.1759 16.8779C10.4521 16.8779 10.6759 16.654 10.6759 16.3779V13.8241C10.6759 13.548 10.4521 13.3241 10.1759 13.3241H7.62222C7.34607 13.3241 7.12222 13.548 7.12222 13.8241C7.12222 14.1003 7.34607 14.3241 7.62222 14.3241H8.96884L6.53902 16.754Z" fill="white" fill-opacity="0.6"/>
</svg>
