<svg width="24" height="24" viewBox="0 0 24 24" fill="none" xmlns="http://www.w3.org/2000/svg">
<path fill-rule="evenodd" clip-rule="evenodd" d="M10.5302 10.5296C10.7254 10.3344 10.7254 10.0178 10.5302 9.82253L8.10066 7.39304H9.44704C9.72318 7.39304 9.94704 7.16918 9.94704 6.89304C9.94704 6.61689 9.72318 6.39304 9.44704 6.39304H6.89355C6.61741 6.39304 6.39355 6.61689 6.39355 6.89304V9.44652C6.39355 9.72266 6.61741 9.94652 6.89355 9.94652C7.1697 9.94652 7.39355 9.72266 7.39355 9.44652V8.10014L9.82305 10.5296C10.0183 10.7249 10.3349 10.7249 10.5302 10.5296ZM13.4708 9.82253C13.2756 10.0178 13.2756 10.3344 13.4708 10.5296C13.6661 10.7249 13.9827 10.7249 14.1779 10.5296L16.6074 8.10014V9.44652C16.6074 9.72266 16.8313 9.94652 17.1074 9.94652C17.3836 9.94652 17.6074 9.72266 17.6074 9.44652V6.89304C17.6074 6.6169 17.3836 6.39304 17.1074 6.39304H14.5539C14.2778 6.39304 14.0539 6.6169 14.0539 6.89304C14.0539 7.16918 14.2778 7.39304 14.5539 7.39304H15.9003L13.4708 9.82253ZM13.4698 14.1775C13.2746 13.9822 13.2746 13.6656 13.4698 13.4704C13.6651 13.2751 13.9817 13.2751 14.1769 13.4704L16.6064 15.8999V14.5535C16.6064 14.2773 16.8303 14.0535 17.1064 14.0535C17.3826 14.0535 17.6064 14.2773 17.6064 14.5535V17.107C17.6064 17.3831 17.3826 17.607 17.1064 17.607H14.553C14.2768 17.607 14.053 17.3831 14.053 17.107C14.053 16.8308 14.2768 16.607 14.553 16.607H15.8993L13.4698 14.1775ZM10.5302 14.1775C10.7254 13.9822 10.7254 13.6656 10.5302 13.4704C10.3349 13.2751 10.0183 13.2751 9.82305 13.4704L7.39355 15.8998V14.5535C7.39355 14.2773 7.1697 14.0535 6.89355 14.0535C6.61741 14.0535 6.39355 14.2773 6.39355 14.5535V17.107C6.39355 17.3831 6.61741 17.607 6.89355 17.607H9.44704C9.72318 17.607 9.94704 17.3831 9.94704 17.107C9.94704 16.8308 9.72318 16.607 9.44704 16.607H8.10066L10.5302 14.1775Z" fill="white" fill-opacity="0.6"/>
</svg>
