<svg width="32" height="33" viewBox="0 0 32 33" fill="none" xmlns="http://www.w3.org/2000/svg">
<path d="M17.4683 21.75C19.8614 21.75 21.25 20.3311 21.25 18.2057C21.25 16.0743 19.826 14.6192 17.3974 14.6192H13.3144L12.0204 14.6735L13.1135 13.6893L14.8153 11.9806C14.8921 11.9021 14.9335 11.8055 14.9335 11.6787C14.9335 11.4311 14.7621 11.25 14.508 11.25C14.4076 11.25 14.2835 11.3043 14.2008 11.3889L10.8918 14.7279C10.7973 14.8184 10.75 14.9332 10.75 15.0539C10.75 15.1747 10.7973 15.2834 10.8918 15.3739L14.2008 18.7189C14.2835 18.8035 14.4076 18.8518 14.508 18.8518C14.7621 18.8518 14.9335 18.6706 14.9335 18.4231C14.9335 18.3023 14.8921 18.1997 14.8153 18.1272L13.1135 16.4185L12.0204 15.4343L13.3144 15.4826H17.4624C19.3533 15.4826 20.3991 16.5755 20.3991 18.1574C20.3991 19.7394 19.3533 20.8866 17.4624 20.8866H16.0266C15.7666 20.8866 15.5952 21.0798 15.5952 21.3153C15.5952 21.5568 15.7666 21.75 16.0266 21.75H17.4683Z" fill="white" fill-opacity="0.6"/>
</svg>
