<svg width="24" height="24" viewBox="0 0 24 24" fill="none" xmlns="http://www.w3.org/2000/svg">
<path fill-rule="evenodd" clip-rule="evenodd" d="M6.5 9.54941V18.0094L10.9 13.65L6.5 9.54941ZM7.44824 15.7183V11.8408L9.38709 13.7794L7.44824 15.7183Z" fill="white" fill-opacity="0.6"/>
<path d="M17.4996 9.24998V18.05L13.0996 13.65L17.4996 9.24998Z" fill="white" fill-opacity="0.6"/>
<path d="M15.5159 5.95C15.7778 5.95 15.9904 6.16258 15.9904 6.42451V9.27157H13.3806C13.1187 9.27157 12.9061 9.05899 12.9061 8.79706C12.9061 8.53513 13.1187 8.32255 13.3806 8.32255L14.4216 8.32082C13.5587 7.43074 12.3773 6.92701 11.1267 6.92701C9.74821 6.92701 8.45494 7.53842 7.57852 8.60417C7.48456 8.71805 7.34862 8.77736 7.21172 8.77736C7.10567 8.77736 6.9989 8.74201 6.91041 8.66941C6.70803 8.50286 6.67885 8.20392 6.8454 8.00154C7.90284 6.71586 9.46327 5.97823 11.1267 5.97823C12.6072 5.97823 14.0074 6.56331 15.043 7.59948L15.0414 6.42451C15.0414 6.16258 15.254 5.95 15.5159 5.95Z" fill="white" fill-opacity="0.6"/>
</svg>
