<svg width="24" height="24" viewBox="0 0 24 24" fill="none" xmlns="http://www.w3.org/2000/svg">
<path fill-rule="evenodd" clip-rule="evenodd" d="M14.4502 6.5L5.99016 6.5L10.3496 10.9L14.4502 6.5ZM8.28172 7.44901L12.1592 7.44901L10.2206 9.38785L8.28172 7.44901Z" fill="white" fill-opacity="0.6"/>
<path d="M14.75 17.5H5.95L10.35 13.1L14.75 17.5Z" fill="white" fill-opacity="0.6"/>
<path d="M18.0498 15.5157C18.0498 15.7776 17.8372 15.9902 17.5753 15.9902H14.7282V13.3804C14.7282 13.1185 14.9408 12.9059 15.2027 12.9059C15.4647 12.9059 15.6773 13.1185 15.6773 13.3804L15.679 14.4214C16.5691 13.5585 17.0728 12.3771 17.0728 11.1265C17.0728 9.74801 16.4614 8.45474 15.3956 7.57832C15.2818 7.48436 15.2224 7.34842 15.2224 7.21152C15.2224 7.10547 15.2578 6.9987 15.3304 6.91021C15.4969 6.70783 15.7959 6.67865 15.9983 6.8452C17.2839 7.90265 18.0216 9.46307 18.0216 11.1265C18.0216 12.607 17.4365 14.0072 16.4003 15.0428L17.5753 15.0412C17.8372 15.0412 18.0498 15.2538 18.0498 15.5157Z" fill="white" fill-opacity="0.6"/>
</svg>
