<svg width="12" height="6" viewBox="0 0 12 6" fill="none" xmlns="http://www.w3.org/2000/svg">
<path fill-rule="evenodd" clip-rule="evenodd" d="M11.375 3C11.375 1.68832 10.3117 0.625 9 0.625L8.25 0.625L7.875 0.625L7.875 1.625L8.25 1.625L9 1.625C9.75939 1.625 10.375 2.24061 10.375 3C10.375 3.75939 9.75939 4.375 9 4.375L8.25 4.375L7.875 4.375L7.875 5.375L8.25 5.375L9 5.375C10.3117 5.375 11.375 4.31168 11.375 3ZM3.75 0.625L4.875 0.625L4.875 1.625L3.75 1.625L3 1.625C2.24061 1.625 1.625 2.24061 1.625 3C1.625 3.75939 2.24061 4.375 3 4.375L3.75 4.375L4.875 4.375L4.875 5.375L3.75 5.375L3 5.375C1.68832 5.375 0.625 4.31168 0.625 3C0.625 1.68832 1.68832 0.625 3 0.625L3.75 0.625ZM8.25 3.5C8.52614 3.5 8.75 3.27614 8.75 3C8.75 2.72386 8.52614 2.5 8.25 2.5L3.75 2.5C3.47386 2.5 3.25 2.72386 3.25 3C3.25 3.27614 3.47386 3.5 3.75 3.5L8.25 3.5Z" fill="white" fill-opacity="0.6"/>
</svg>
