<svg width="12" height="14" viewBox="0 0 12 14" fill="none" xmlns="http://www.w3.org/2000/svg">
<path fill-rule="evenodd" clip-rule="evenodd" d="M8.75098 12.9581C8.75098 13.2112 8.95617 13.4164 9.20929 13.4164C9.46241 13.4164 9.66761 13.2112 9.66761 12.9581V6.99998C9.66761 6.98459 9.66685 6.96938 9.66537 6.95438C10.7121 6.74265 11.5002 5.81752 11.5002 4.70834C11.5002 3.59916 10.7121 2.67403 9.66538 2.46229C9.66685 2.44733 9.66761 2.43217 9.66761 2.41683V1.04188C9.66761 0.78876 9.46241 0.583566 9.20929 0.583566C8.95617 0.583566 8.75098 0.78876 8.75098 1.04188V2.41683C8.75098 2.43207 8.75172 2.44714 8.75317 2.46201C7.70573 2.6732 6.91699 3.59866 6.91699 4.70834C6.91699 5.81802 7.70574 6.74348 8.75319 6.95467C8.75173 6.96958 8.75098 6.98469 8.75098 6.99998V12.9581ZM10.5002 4.70834C10.5002 3.99502 9.92189 3.41676 9.20857 3.41676C8.49525 3.41676 7.91699 3.99502 7.91699 4.70834C7.91699 5.42166 8.49525 5.99992 9.20857 5.99992C9.92189 5.99992 10.5002 5.42166 10.5002 4.70834ZM2.33301 1.04186C2.33301 0.788737 2.5382 0.583542 2.79132 0.583542C3.04444 0.583542 3.24964 0.788737 3.24964 1.04186V6.99997C3.24964 7.01526 3.24889 7.03037 3.24743 7.04528C4.29464 7.25665 5.08316 8.182 5.08316 9.29152C5.08316 10.401 4.29464 11.3264 3.24742 11.5378C3.24888 11.5527 3.24964 11.5678 3.24964 11.5831V12.9581C3.24964 13.2112 3.04444 13.4164 2.79132 13.4164C2.5382 13.4164 2.33301 13.2112 2.33301 12.9581V11.5831C2.33301 11.5678 2.33376 11.5526 2.33523 11.5377C1.28827 11.3261 0.5 10.4009 0.5 9.29152C0.5 8.18218 1.28826 7.25695 2.33523 7.04538C2.33376 7.03044 2.33301 7.01529 2.33301 6.99997V1.04186ZM4.08316 9.29152C4.08316 10.0048 3.5049 10.5831 2.79158 10.5831C2.07826 10.5831 1.5 10.0048 1.5 9.29152C1.5 8.5782 2.07826 7.99994 2.79158 7.99994C3.5049 7.99994 4.08316 8.5782 4.08316 9.29152Z" fill="white" fill-opacity="0.6"/>
</svg>
