<svg width="32" height="33" viewBox="0 0 32 33" fill="none" xmlns="http://www.w3.org/2000/svg">
<path fill-rule="evenodd" clip-rule="evenodd" d="M15.3661 10.119H17.6608C17.8431 9.41191 18.3685 8.84405 19.0548 8.62976C20.1807 8.25476 21.3817 8.86548 21.757 9.99048C22.1323 11.1155 21.5211 12.3155 20.3952 12.6905L22.2717 19.269C23.0759 19.419 23.73 20.0298 23.9338 20.8333C24.2233 21.9798 23.537 23.1476 22.3897 23.4369C21.2423 23.7262 20.0735 23.0405 19.784 21.894H13.2107C13.007 22.6869 12.3636 23.2976 11.5487 23.4583C10.3906 23.6833 9.26466 22.9226 9.03948 21.7655C8.81429 20.6083 9.57563 19.4833 10.7337 19.2583L12.621 12.6798C11.924 12.4548 11.3878 11.8869 11.2055 11.169C10.916 10.0226 11.613 8.85476 12.7604 8.56548C13.9077 8.27619 15.0766 8.97262 15.3661 10.119ZM21.1991 19.3335L19.3119 12.7549C18.5076 12.5942 17.8642 11.9835 17.6605 11.1906H15.3658C15.162 11.9835 14.5187 12.5942 13.7144 12.7549L11.8379 19.3335C12.5242 19.5692 13.0496 20.1263 13.2319 20.8228H19.8051C19.9874 20.1263 20.5128 19.5585 21.1991 19.3335ZM12.2246 10.6549C12.2246 10.0656 12.7071 9.58344 13.2969 9.58344C13.8867 9.58344 14.3692 10.0656 14.3692 10.6549C14.3692 11.2441 13.8867 11.7263 13.2969 11.7263C12.7071 11.7263 12.2246 11.2441 12.2246 10.6549ZM10.0889 21.3582C10.0889 21.9475 10.5714 22.4296 11.1612 22.4296C11.7509 22.4296 12.2335 21.9475 12.2335 21.3582C12.2335 20.7689 11.7509 20.2867 11.1612 20.2867C10.5714 20.2867 10.0889 20.7689 10.0889 21.3582ZM22.9366 21.3582C22.9366 21.9475 22.4541 22.4296 21.8643 22.4296C21.2745 22.4296 20.792 21.9475 20.792 21.3582C20.792 20.7689 21.2745 20.2868 21.8643 20.2868C22.4648 20.2868 22.9366 20.7689 22.9366 21.3582ZM19.7305 11.7263C20.3203 11.7263 20.8028 11.2441 20.8028 10.6549C20.8028 10.0656 20.3203 9.58344 19.7305 9.58344C19.1407 9.58344 18.6582 10.0656 18.6582 10.6549C18.6582 11.2441 19.1407 11.7263 19.7305 11.7263Z" fill="white" fill-opacity="0.6"/>
</svg>
