<svg width="13" height="12" viewBox="0 0 13 12" fill="none" xmlns="http://www.w3.org/2000/svg">
<path fill-rule="evenodd" clip-rule="evenodd" d="M6.375 0C6.16789 0 6 0.167893 6 0.375V5.25H0.375C0.167893 5.25 0 5.41789 0 5.625C0 5.83211 0.167894 6 0.375 6H6V11.625C6 11.8321 6.16789 12 6.375 12C6.58211 12 6.75 11.8321 6.75 11.625V6H12.375C12.5821 6 12.75 5.83211 12.75 5.625C12.75 5.41789 12.5821 5.25 12.375 5.25H6.75V0.375C6.75 0.167893 6.58211 0 6.375 0Z" fill="white" fill-opacity="0.6"/>
</svg>
